<svg version="1.1" viewBox="0.0 0.0 960.0 720.0" fill="none" stroke="none" stroke-linecap="square" stroke-miterlimit="10" xmlns:xlink="http://www.w3.org/1999/xlink" xmlns="http://www.w3.org/2000/svg"><clipPath id="p.0"><path d="m0 0l960.0 0l0 720.0l-960.0 0l0 -720.0z" clip-rule="nonzero"/></clipPath><g clip-path="url(#p.0)"><path fill="#000000" fill-opacity="0.0" d="m0 0l960.0 0l0 720.0l-960.0 0z" fill-rule="evenodd"/><path fill="#000000" d="m195.22835 263.55035l0 0c0 -74.67105 60.532837 -135.2039 135.20387 -135.2039l299.13553 0l0 0c35.858337 0 70.247986 14.244659 95.60358 39.60031c25.355652 25.355637 39.60034 59.745285 39.60034 95.60359l0 321.2458c0 74.67102 -60.532837 135.20386 -135.20392 135.20386l-299.13553 0c-74.671036 0 -135.20387 -60.532837 -135.20387 -135.20386z" fill-rule="evenodd"/><path stroke="#000000" stroke-width="1.0" stroke-linejoin="round" stroke-linecap="butt" d="m195.22835 263.55035l0 0c0 -74.67105 60.532837 -135.2039 135.20387 -135.2039l299.13553 0l0 0c35.858337 0 70.247986 14.244659 95.60358 39.60031c25.355652 25.355637 39.60034 59.745285 39.60034 95.60359l0 321.2458c0 74.67102 -60.532837 135.20386 -135.20392 135.20386l-299.13553 0c-74.671036 0 -135.20387 -60.532837 -135.20387 -135.20386z" fill-rule="evenodd"/><path fill="#ffff00" d="m226.86613 267.0121l0 0c0 -59.144638 47.946182 -107.09082 107.090805 -107.09082l292.0861 0l0 0c28.402283 0 55.641235 11.282745 75.72467 31.366165c20.083435 20.08342 31.36615 47.322388 31.36615 75.724655l0 316.653c0 59.144592 -47.946167 107.09082 -107.09082 107.09082l-292.0861 0c-59.144623 0 -107.090805 -47.946228 -107.090805 -107.09082z" fill-rule="evenodd"/><path stroke="#ffff00" stroke-width="1.0" stroke-linejoin="round" stroke-linecap="butt" d="m226.86613 267.0121l0 0c0 -59.144638 47.946182 -107.09082 107.090805 -107.09082l292.0861 0l0 0c28.402283 0 55.641235 11.282745 75.72467 31.366165c20.083435 20.08342 31.36615 47.322388 31.36615 75.724655l0 316.653c0 59.144592 -47.946167 107.09082 -107.09082 107.09082l-292.0861 0c-59.144623 0 -107.090805 -47.946228 -107.090805 -107.09082z" fill-rule="evenodd"/><path fill="#000000" d="m195.22835 64.173225l0 0c0 -35.441895 28.731339 -64.173225 64.17323 -64.173225l441.19687 0c17.019775 0 33.34247 6.7610884 45.37732 18.795904c12.03479 12.034815 18.795898 28.357527 18.795898 45.37732l0 0l0 0c0 35.441895 -28.731323 64.173225 -64.17322 64.173225l-441.19687 0c-35.441895 0 -64.17323 -28.73133 -64.17323 -64.173225z" fill-rule="evenodd"/><path stroke="#000000" stroke-width="1.0" stroke-linejoin="round" stroke-linecap="butt" d="m195.22835 64.173225l0 0c0 -35.441895 28.731339 -64.173225 64.17323 -64.173225l441.19687 0c17.019775 0 33.34247 6.7610884 45.37732 18.795904c12.03479 12.034815 18.795898 28.357527 18.795898 45.37732l0 0l0 0c0 35.441895 -28.731323 64.173225 -64.17322 64.173225l-441.19687 0c-35.441895 0 -64.17323 -28.73133 -64.17323 -64.173225z" fill-rule="evenodd"/></g></svg>