<svg version="1.1" viewBox="0.0 0.0 996.4173228346457 715.8215223097113" fill="none" stroke="none" stroke-linecap="square" stroke-miterlimit="10" xmlns:xlink="http://www.w3.org/1999/xlink" xmlns="http://www.w3.org/2000/svg"><clipPath id="p.0"><path d="m0 0l996.4173 0l0 715.82153l-996.4173 0l0 -715.82153z" clip-rule="nonzero"/></clipPath><g clip-path="url(#p.0)"><path fill="#000000" fill-opacity="0.0" d="m0 0l996.4173 0l0 715.82153l-996.4173 0z" fill-rule="evenodd"/><path fill="#ffffff" d="m191.22572 89.02362l0 0c0 -49.166386 39.85724 -89.02362 89.023605 -89.02362l399.4961 0c23.610535 0 46.25403 9.379248 62.94922 26.074415c16.69513 16.69517 26.074402 39.33867 26.074402 62.949203l0 0l0 0c0 49.166397 -39.85724 89.02362 -89.02362 89.02362l-399.4961 0c-49.166367 0 -89.023605 -39.857224 -89.023605 -89.02362z" fill-rule="evenodd"/><path stroke="#ffffff" stroke-width="1.0" stroke-linejoin="round" stroke-linecap="butt" d="m191.22572 89.02362l0 0c0 -49.166386 39.85724 -89.02362 89.023605 -89.02362l399.4961 0c23.610535 0 46.25403 9.379248 62.94922 26.074415c16.69513 16.69517 26.074402 39.33867 26.074402 62.949203l0 0l0 0c0 49.166397 -39.85724 89.02362 -89.02362 89.02362l-399.4961 0c-49.166367 0 -89.023605 -39.857224 -89.023605 -89.02362z" fill-rule="evenodd"/><path fill="#ffffff" d="m191.22835 259.55182l0 0c0 -75.719894 61.383102 -137.103 137.10301 -137.103l303.33728 0l0 0c36.362 0 71.23468 14.444733 96.94647 40.15654c25.711792 25.711792 40.156555 60.584488 40.156555 96.94646l0 317.60504c0 75.71985 -61.383118 137.10297 -137.10303 137.10297l-303.33728 0c-75.71991 0 -137.10301 -61.383118 -137.10301 -137.10297z" fill-rule="evenodd"/><path stroke="#ffffff" stroke-width="1.0" stroke-linejoin="round" stroke-linecap="butt" d="m191.22835 259.55182l0 0c0 -75.719894 61.383102 -137.103 137.10301 -137.103l303.33728 0l0 0c36.362 0 71.23468 14.444733 96.94647 40.15654c25.711792 25.711792 40.156555 60.584488 40.156555 96.94646l0 317.60504c0 75.71985 -61.383118 137.10297 -137.10303 137.10297l-303.33728 0c-75.71991 0 -137.10301 -61.383118 -137.10301 -137.10297z" fill-rule="evenodd"/><path fill="#000000" d="m220.7874 272.41446l0 0c0 -67.96912 55.09984 -123.06897 123.068954 -123.06897l272.28726 0l0 0c32.639954 0 63.942993 12.966156 87.02295 36.046066c23.079895 23.07991 36.04602 54.38298 36.04602 87.0229l0 291.87784c0 67.96912 -55.099854 123.06897 -123.06897 123.06897l-272.28726 0c-67.96912 0 -123.068954 -55.099854 -123.068954 -123.06897z" fill-rule="evenodd"/><path stroke="#000000" stroke-width="1.0" stroke-linejoin="round" stroke-linecap="butt" d="m220.7874 272.41446l0 0c0 -67.96912 55.09984 -123.06897 123.068954 -123.06897l272.28726 0l0 0c32.639954 0 63.942993 12.966156 87.02295 36.046066c23.079895 23.07991 36.04602 54.38298 36.04602 87.0229l0 291.87784c0 67.96912 -55.099854 123.06897 -123.06897 123.06897l-272.28726 0c-67.96912 0 -123.068954 -55.099854 -123.068954 -123.06897z" fill-rule="evenodd"/><path fill="#ffff00" d="m249.58688 275.54068l0 0c0 -53.83873 43.644928 -97.48367 97.48367 -97.48367l265.88306 0l0 0c25.854248 0 50.649597 10.270584 68.931335 28.552307c18.281738 18.281738 28.552307 43.077103 28.552307 68.931366l0 287.7413c0 53.838745 -43.644897 97.4837 -97.48364 97.4837l-265.88306 0l0 0c-53.838745 0 -97.48367 -43.64496 -97.48367 -97.4837z" fill-rule="evenodd"/><path stroke="#ffff00" stroke-width="1.0" stroke-linejoin="round" stroke-linecap="butt" d="m249.58688 275.54068l0 0c0 -53.83873 43.644928 -97.48367 97.48367 -97.48367l265.88306 0l0 0c25.854248 0 50.649597 10.270584 68.931335 28.552307c18.281738 18.281738 28.552307 43.077103 28.552307 68.931366l0 287.7413c0 53.838745 -43.644897 97.4837 -97.48364 97.4837l-265.88306 0l0 0c-53.838745 0 -97.48367 -43.64496 -97.48367 -97.4837z" fill-rule="evenodd"/><path fill="#000000" d="m220.7874 90.9843l0 0c0 -32.223858 26.122604 -58.346455 58.34645 -58.346455l401.7323 0c15.474426 0 30.315063 6.1471977 41.25714 17.08928c10.942139 10.942085 17.089294 25.782734 17.089294 41.257175l0 0l0 0c0 32.22386 -26.122559 58.34645 -58.346436 58.34645l-401.7323 0c-32.223846 0 -58.34645 -26.12259 -58.34645 -58.34645z" fill-rule="evenodd"/><path stroke="#000000" stroke-width="1.0" stroke-linejoin="round" stroke-linecap="butt" d="m220.7874 90.9843l0 0c0 -32.223858 26.122604 -58.346455 58.34645 -58.346455l401.7323 0c15.474426 0 30.315063 6.1471977 41.25714 17.08928c10.942139 10.942085 17.089294 25.782734 17.089294 41.257175l0 0l0 0c0 32.22386 -26.122559 58.34645 -58.346436 58.34645l-401.7323 0c-32.223846 0 -58.34645 -26.12259 -58.34645 -58.34645z" fill-rule="evenodd"/></g></svg>